<svg width="36" height="37" viewBox="0 0 36 37" fill="none" xmlns="http://www.w3.org/2000/svg">
<rect x="-17" y="-16.1016" width="70" height="70" rx="35" fill="#CDB494"/>
<path d="M31.3891 0.898438H13.0178V5.10072H8.81556V9.30293H4.61328V36.8984H22.9846V32.6962H27.1869V28.4939H31.3891V0.898438ZM20.8643 34.7781H6.73365V11.4233H20.8643V34.7781ZM25.0665 30.5758H22.9846V9.30293H10.9359V7.22109H25.0665V30.5758H25.0665ZM29.2688 26.3736H27.1869V5.10072H15.1381V3.0188H29.2688V26.3736Z" fill="white"/>
<path d="M18.7502 13.4453H8.84766V23.6911H18.7502V13.4453ZM16.6298 21.5708H10.968V15.5657H16.6298V21.5708Z" fill="white"/>
<path d="M11.0625 25.9883H16.5329V28.1086H11.0625V25.9883Z" fill="white"/>
<path d="M11.0625 30.4297H16.5329V32.5501H11.0625V30.4297Z" fill="white"/>
</svg>
