<svg width="70" height="71" viewBox="0 0 70 71" fill="none" xmlns="http://www.w3.org/2000/svg">
<rect y="0.791016" width="70" height="70" rx="35" fill="#CDB494"/>
<g clip-path="url(#clip0_20212_2)">
<path d="M35.0018 53.791L30.2702 50.3533H24.4217L22.6144 44.791L17.8828 41.3533L19.6901 35.791L17.8828 30.2287L22.6144 26.791L24.4217 21.2287H30.2702L35.0018 17.791L39.7334 21.2288H45.5819L47.3892 26.7911L52.1208 30.2288L50.3135 35.7911L52.1208 41.3534L47.3892 44.7911L45.5819 50.3534H39.7334L35.0018 53.791ZM26.4654 47.5403H31.1842L35.0018 50.3139L38.8194 47.5403H43.5381L44.9964 43.0525L48.8139 40.2789L47.3558 35.7911L48.8139 31.3033L44.9964 28.5297L43.5381 24.0419H38.8194L35.0018 21.2683L31.1842 24.0419H26.4654L25.0072 28.5297L21.1897 31.3033L22.6478 35.7911L21.1897 40.2789L25.0072 43.0525L26.4654 47.5403ZM33.2613 41.7583L27.7913 36.2884L29.7805 34.2992L33.2613 37.7801L40.2231 30.8184L42.2122 32.8075L33.2613 41.7583Z" fill="white"/>
</g>
<defs>
<clipPath id="clip0_20212_2">
<rect width="36" height="36" fill="white" transform="translate(17 17.791)"/>
</clipPath>
</defs>
</svg>
