<svg width="70" height="71" viewBox="0 0 70 71" fill="none" xmlns="http://www.w3.org/2000/svg">
<rect y="0.791016" width="70" height="70" rx="35" fill="#CDB494"/>
<g clip-path="url(#clip0_20212_3)">
<path d="M31.6458 25.7414L17 40.3761L27.4391 50.8152L31.1538 47.1059L30.5587 52.0251L45.2175 53.7845L47.6578 33.5139L42.4377 26.8698L43.8773 25.4302C45.9158 26.7785 48.7061 26.5667 50.5133 24.7596L52.0749 23.1979C53.3083 21.9644 53.3083 19.9574 52.0749 18.7239C50.8414 17.4905 48.8343 17.4905 47.6009 18.7239C46.464 19.8608 41.691 24.6337 40.5833 25.7415L31.6458 25.7414ZM19.9833 40.3767L32.519 27.8505H39.9955V35.2964L27.4403 47.8337L19.9833 40.3767ZM45.4593 34.1296L43.3755 51.4393L32.9059 50.1826L33.5702 44.6929L42.1045 36.1708V29.8597L45.4593 34.1296ZM49.0922 20.2152C49.5043 19.8031 50.1713 19.8031 50.5835 20.2152C50.9947 20.6264 50.9947 21.2954 50.5835 21.7066L49.0219 23.2682C48.0497 24.2403 46.5971 24.4464 45.4213 23.8861L49.0922 20.2152Z" fill="white"/>
<path d="M35.0643 31.2598L33.446 32.8781C32.2949 32.327 30.8375 32.5038 29.8447 33.4968C28.6112 34.7302 28.6111 36.7373 29.8446 37.9708C29.8516 37.9743 29.8517 37.9743 29.8446 37.9708C30.2566 38.3829 30.2568 39.05 29.8446 39.4622C29.4325 39.8743 28.7655 39.8743 28.3533 39.4622C27.9411 39.05 27.9411 38.383 28.3533 37.9708L26.8619 36.4795C25.87 37.4714 25.6916 38.9286 26.2432 40.081L24.625 41.6992L26.1163 43.1905L27.7346 41.5722C28.8867 42.1237 30.344 41.9456 31.336 40.9535C32.5723 39.7172 32.5725 37.716 31.336 36.4795C30.9248 36.0683 30.9249 35.3993 31.3361 34.9881C31.7481 34.576 32.4152 34.576 32.8274 34.9881C33.2385 35.3992 33.2385 36.0683 32.8274 36.4794L34.3187 37.9708C34.9163 37.3732 35.2453 36.5788 35.2453 35.7337C35.2453 35.2536 35.1388 34.7899 34.9374 34.3693L36.5557 32.751L35.0643 31.2598Z" fill="white"/>
</g>
<defs>
<clipPath id="clip0_20212_3">
<rect width="36" height="36" fill="white" transform="translate(17 17.791)"/>
</clipPath>
</defs>
</svg>
