<svg width="34" height="34" viewBox="0 0 34 34" fill="none" xmlns="http://www.w3.org/2000/svg">
<g clip-path="url(#clip0_17154_198)">
<path d="M17 34C26.3888 34 34 26.3888 34 17C34 7.61116 26.3888 0 17 0C7.61116 0 0 7.61116 0 17C0 26.3888 7.61116 34 17 34Z" fill="#CDB494"/>
<path d="M24.8402 21.8585C24.442 21.9144 22.5071 21.8585 22.4065 21.8585C21.9062 21.8635 21.4241 21.6715 21.0644 21.3239C20.655 20.9302 20.286 20.4962 19.8945 20.0869C19.7757 19.9621 19.6478 19.8462 19.512 19.7402C19.1921 19.4964 18.8767 19.5523 18.7269 19.9281C18.6095 20.3354 18.5287 20.7523 18.4853 21.174C18.4783 21.3516 18.4011 21.5192 18.2707 21.64C18.1403 21.7608 17.9673 21.8248 17.7896 21.8182C17.5257 21.8316 17.2617 21.8383 17 21.8316C16.048 21.8267 15.1106 21.5967 14.2644 21.1606C13.3508 20.65 12.5545 19.9536 11.9269 19.1161C10.9227 17.7901 10.0549 16.3663 9.33661 14.8661C9.29859 14.79 8.54477 13.1862 8.52688 13.1124C8.48014 13.0073 8.47568 12.8883 8.51442 12.78C8.55316 12.6717 8.63212 12.5824 8.7349 12.5308C8.86911 12.4794 11.3542 12.5308 11.3945 12.5308C11.5796 12.5291 11.7603 12.5865 11.9104 12.6947C12.0605 12.803 12.1721 12.9564 12.2289 13.1325C12.6885 14.3043 13.3161 15.4029 14.0921 16.3939C14.2004 16.5274 14.3278 16.6442 14.4702 16.7406C14.5069 16.776 14.5524 16.801 14.602 16.8129C14.6515 16.8249 14.7034 16.8233 14.7522 16.8085C14.801 16.7937 14.845 16.7661 14.8796 16.7286C14.9141 16.6911 14.9381 16.645 14.9489 16.5952C15.0472 16.2718 15.105 15.9374 15.1211 15.5998C15.1345 14.9287 15.1211 14.4814 15.0831 13.8103C15.0966 13.5816 15.0194 13.3568 14.8682 13.1847C14.717 13.0126 14.5041 12.907 14.2756 12.891C14.0787 12.8574 14.0519 12.6964 14.1883 12.5353C14.45 12.202 14.8124 12.1483 15.2061 12.1282C15.8011 12.0946 16.3983 12.1282 16.9956 12.1282H17.1253C17.3875 12.1275 17.6491 12.1538 17.906 12.2065C18.0561 12.2372 18.1924 12.3157 18.2944 12.4302C18.3963 12.5447 18.4586 12.689 18.4719 12.8417C18.502 13.0108 18.5155 13.1823 18.5121 13.354C18.4965 14.0854 18.4607 14.8169 18.4517 15.5506C18.4464 15.8404 18.4727 16.1299 18.53 16.414C18.6173 16.8032 18.8835 16.9016 19.1564 16.6175C19.4964 16.2525 19.8082 15.8622 20.0891 15.4499C20.5942 14.6992 21.01 13.8922 21.3283 13.0453C21.5006 12.6114 21.6325 12.5152 22.1 12.5152H24.7373C24.8946 12.5125 25.0515 12.5337 25.2025 12.5778C25.2559 12.592 25.3057 12.617 25.3489 12.6513C25.3922 12.6856 25.4279 12.7284 25.4539 12.777C25.4799 12.8257 25.4956 12.8792 25.5001 12.9342C25.5046 12.9892 25.4977 13.0445 25.4799 13.0967C25.3257 13.6579 25.0611 14.1826 24.7015 14.6402C24.1646 15.3985 23.601 16.1389 23.0507 16.877C22.9811 16.9736 22.9176 17.0744 22.8606 17.179C22.6548 17.5503 22.6704 17.7606 22.9679 18.0737C23.4466 18.5658 23.9589 19.0289 24.4196 19.5344C24.7595 19.9027 25.0663 20.3002 25.3367 20.7221C25.6767 21.2679 25.4687 21.769 24.8402 21.8585Z" fill="white"/>
</g>
<defs>
<clipPath id="clip0_17154_198">
<rect width="34" height="34" fill="white"/>
</clipPath>
</defs>
</svg>
