<svg width="70" height="71" viewBox="0 0 70 71" fill="none" xmlns="http://www.w3.org/2000/svg">
<rect y="0.791016" width="70" height="70" rx="35" fill="#CDB494"/>
<g clip-path="url(#clip0_20212_4)">
<path d="M28.9606 32.5562L26.9715 34.5452L33.5919 41.1655L43.0252 31.7323L41.0361 29.7433L33.5918 37.1875L28.9606 32.5562ZM34.9983 18.791L19.5273 21.8465V32.4673C19.5273 37.2403 20.9409 41.8561 23.6151 45.8156C26.2922 49.7795 30.0479 52.8109 34.4759 54.5821L34.9983 54.791L35.5207 54.5821C39.9487 52.8109 43.7044 49.7795 46.3815 45.8156C49.0557 41.8561 50.4693 37.2403 50.4693 32.4673V21.8465L34.9983 18.791ZM47.6564 32.4673C47.6564 40.9228 42.7071 48.4316 34.9983 51.7534C27.2895 48.4316 22.3402 40.9228 22.3402 32.4673V24.1582L34.9983 21.6583L47.6564 24.1582V32.4673Z" fill="white"/>
</g>
<defs>
<clipPath id="clip0_20212_4">
<rect width="36" height="36" fill="white" transform="translate(17 18.791)"/>
</clipPath>
</defs>
</svg>
