<svg width="70" height="71" viewBox="0 0 70 71" fill="none" xmlns="http://www.w3.org/2000/svg">
<rect y="0.898438" width="70" height="70" rx="35" fill="#CDB494"/>
<g clip-path="url(#clip0_20212_6)">
<path d="M55 35.5338L50.618 27.5585H46.2036V24.4355H18.6174V29.146H15V31.4882H18.6174V33.6449H15V35.9872H18.6174V38.0985H15V40.4408H18.6174V42.8611H16.7176V45.2033H23.4553C23.6541 47.5294 25.6097 49.3618 27.9863 49.3618C30.363 49.3618 32.3186 47.5294 32.5174 45.2033H40.5015C40.7002 47.5294 42.6558 49.3618 45.0325 49.3618C47.4092 49.3618 49.3648 47.5294 49.5635 45.2033H55V35.5338ZM51.8492 34.6633H46.2037V29.9007H49.2324L51.8492 34.6633ZM27.9863 47.0196C26.7695 47.0196 25.7796 46.0297 25.7796 44.8129C25.7796 43.5961 26.7695 42.6061 27.9863 42.6061C29.2031 42.6061 30.193 43.5961 30.193 44.8129C30.193 46.0297 29.2031 47.0196 27.9863 47.0196ZM40.9245 42.8611H32.0944C31.3626 41.3268 29.7964 40.2639 27.9864 40.2639C26.1764 40.2639 24.6102 41.3268 23.8784 42.8611H20.9596V40.4408H23.1978V38.0985H20.9596V35.9872H29.6519V33.6449H20.9596V31.4882H23.6662V29.146H20.9596V26.7778H43.8614V40.4176C42.5638 40.7636 41.4927 41.67 40.9245 42.8611ZM45.0326 47.0196C43.8158 47.0196 42.8259 46.0297 42.8259 44.8129C42.8259 43.5961 43.8158 42.6061 45.0326 42.6061C46.2494 42.6061 47.2393 43.5961 47.2393 44.8129C47.2393 46.0297 46.2493 47.0196 45.0326 47.0196ZM49.1406 42.8611C48.5724 41.67 47.5013 40.7636 46.2037 40.4176V37.0055H48.2596V39.2696H50.6018V37.0055H52.6578V42.8611H49.1406Z" fill="white"/>
</g>
<defs>
<clipPath id="clip0_20212_6">
<rect width="40" height="40" fill="white" transform="translate(15 16.8984)"/>
</clipPath>
</defs>
</svg>
